HIERARCHY
ROOT Hips
{
	OFFSET 0.000000 0.000000 0.000000
	CHANNELS 6 Xposition Yposition Zposition Xrotation Yrotation Zrotation
	JOINT Spine
	{
		OFFSET 0.000000 0.041051 0.061576
		CHANNELS 3 Xrotation Yrotation Zrotation
		JOINT Spine1
		{
			OFFSET 0.000000 0.014257 0.080854
			CHANNELS 3 Xrotation Yrotation Zrotation
			JOINT Spine2
			{
				OFFSET 0.000000 0.007156 0.081789
				CHANNELS 3 Xrotation Yrotation Zrotation
				JOINT Spine3
				{
					OFFSET 0.000000 0.000000 0.082102
					CHANNELS 3 Xrotation Yrotation Zrotation
					JOINT Neck
					{
						OFFSET 0.000000 -0.030788 0.215517
						CHANNELS 3 Xrotation Yrotation Zrotation
						JOINT Head
						{
							OFFSET 0.000000 -0.019603 0.111175
							CHANNELS 3 Xrotation Yrotation Zrotation
							End Site
							{
								OFFSET 0.000000 0.000000 0.000000
							}
						}
					}
					JOINT RightShoulder
					{
						OFFSET -0.026795 -0.044658 0.144692
						CHANNELS 3 Xrotation Yrotation Zrotation
						JOINT RightArm
						{
							OFFSET -0.133081 0.000000 0.000000
							CHANNELS 3 Xrotation Yrotation Zrotation
							JOINT RightForeArm
							{
								OFFSET -0.269168 0.000000 0.000000
								CHANNELS 3 Xrotation Yrotation Zrotation
								JOINT RightHand
								{
									OFFSET -0.218749 0.000000 0.000000
									CHANNELS 3 Xrotation Yrotation Zrotation
									JOINT RightHandEnd
									{
										OFFSET -0.063788 0.000000 0.000000
										CHANNELS 3 Xrotation Yrotation Zrotation
										End Site
										{
											OFFSET 0.000000 0.000000 0.000000
										}
									}
									JOINT RightHandThumb1
									{
										OFFSET -0.025515 -0.042525 -0.017010
										CHANNELS 3 Xrotation Yrotation Zrotation
										End Site
										{
											OFFSET 0.000000 0.000000 0.000000
										}
									}
								}
							}
						}
					}
					JOINT LeftShoulder
					{
						OFFSET 0.026795 -0.044658 0.144692
						CHANNELS 3 Xrotation Yrotation Zrotation
						JOINT LeftArm
						{
							OFFSET 0.133081 0.000000 0.000000
							CHANNELS 3 Xrotation Yrotation Zrotation
							JOINT LeftForeArm
							{
								OFFSET 0.269168 0.000000 0.000000
								CHANNELS 3 Xrotation Yrotation Zrotation
								JOINT LeftHand
								{
									OFFSET 0.218749 0.000000 0.000000
									CHANNELS 3 Xrotation Yrotation Zrotation
									JOINT LeftHandEnd
									{
										OFFSET 0.063788 0.000000 0.000000
										CHANNELS 3 Xrotation Yrotation Zrotation
										End Site
										{
											OFFSET 0.000000 0.000000 0.000000
										}
									}
									JOINT LeftHandThumb1
									{
										OFFSET 0.025515 -0.042525 -0.017010
										CHANNELS 3 Xrotation Yrotation Zrotation
										End Site
										{
											OFFSET 0.000000 0.000000 0.000000
										}
									}
								}
							}
						}
					}
				}
			}
		}
	}
	JOINT RightUpLeg
	{
		OFFSET -0.079492 0.000000 -0.023222
		CHANNELS 3 Xrotation Yrotation Zrotation
		JOINT RightLeg
		{
			OFFSET 0.000000 0.000000 -0.393933
			CHANNELS 3 Xrotation Yrotation Zrotation
			JOINT RightFoot
			{
				OFFSET 0.000000 0.000000 -0.344864
				CHANNELS 3 Xrotation Yrotation Zrotation
				JOINT RightToeBase
				{
					OFFSET 0.000000 -0.129455 -0.047118
					CHANNELS 3 Xrotation Yrotation Zrotation
					End Site
					{
						OFFSET 0.000000 0.000000 0.000000
					}
				}
			}
		}
	}
	JOINT LeftUpLeg
	{
		OFFSET 0.079492 0.000000 -0.023222
		CHANNELS 3 Xrotation Yrotation Zrotation
		JOINT LeftLeg
		{
			OFFSET 0.000000 0.000000 -0.393933
			CHANNELS 3 Xrotation Yrotation Zrotation
			JOINT LeftFoot
			{
				OFFSET 0.000000 0.000000 -0.344864
				CHANNELS 3 Xrotation Yrotation Zrotation
				JOINT LeftToeBase
				{
					OFFSET 0.000000 -0.129455 -0.047118
					CHANNELS 3 Xrotation Yrotation Zrotation
					End Site
					{
						OFFSET 0.000000 0.000000 0.000000
					}
				}
			}
		}
	}
}
MOTION
Frames: 9
Frame Time: 0.033333
0.409250 -1.001390 0.838213 -6.523400 -0.568000 -96.818600 0.709300 6.126200 0.594000 0.798800 1.464400 0.541600 -1.917300 8.643600 4.441100 -0.618800 2.391300 -1.438000 -1.895800 0.103000 2.746400 -5.432000 -2.456100 5.168900 -21.094700 24.588800 33.505300 -19.733600 -10.481200 14.851800 -0.000100 0.000100 102.878500 -33.224700 -13.351200 2.255800 0.000000 0.000000 0.000000 0.000000 0.000000 0.000000 -0.492300 -6.799700 -6.858000 -35.613100 26.726300 -1.340800 -0.000100 0.000000 -132.944300 -51.890500 -14.174700 7.207100 0.000000 0.000000 0.000000 0.000000 0.000000 0.000000 -2.688400 3.173700 -15.924400 17.619600 0.000000 0.000000 -13.602700 -2.003200 3.476100 -1.651700 0.000000 0.000000 -1.107600 -5.474900 21.757300 21.524400 0.000000 0.000000 0.413300 6.980300 7.995100 -23.365300 0.000000 0.000000 
0.406182 -1.004059 0.838131 -6.130800 -0.174000 -97.930500 0.583400 6.138100 0.665600 0.684200 1.397400 0.556700 -1.806300 8.049700 4.735600 -0.555700 2.126200 -1.044600 -1.891300 -0.351200 2.418200 -5.334100 -2.133400 5.262500 -20.991600 24.526600 33.116700 -19.963400 -9.628100 15.190900 -0.000100 0.000100 102.835200 -32.984900 -13.480700 2.108700 0.000000 0.000000 0.000000 0.000000 0.000000 0.000000 -0.008700 -7.835800 -6.617900 -35.748600 26.379500 -1.413500 -0.000100 0.000000 -132.830500 -53.035300 -13.944500 6.567500 0.000000 0.000000 0.000000 0.000000 0.000000 0.000000 -2.328100 3.338300 -16.500200 18.024900 0.000000 0.000000 -13.440100 -2.697000 4.989900 -1.805000 0.000000 0.000000 -1.038900 -6.292700 20.616400 22.270300 0.000000 0.000000 -0.291300 7.534900 9.052600 -25.264300 0.000000 0.000000 
0.402120 -1.008517 0.838916 -6.068300 0.333500 -99.015100 0.469800 6.106300 0.780200 0.595600 1.197400 0.569200 -1.800200 7.659300 5.387600 -0.485500 1.895700 -0.747000 -1.736000 -0.693700 2.518500 -5.057200 -1.367000 5.054000 -20.796200 24.588500 32.620000 -19.923300 -8.688300 15.715400 -0.000100 0.000100 102.746500 -32.742100 -13.458300 2.039700 0.000000 0.000000 0.000000 0.000000 0.000000 0.000000 0.236500 -8.418000 -6.442900 -35.443700 26.193500 -1.684600 -0.000100 0.000000 -132.822200 -53.515000 -13.997100 6.319000 0.000000 0.000000 0.000000 0.000000 0.000000 0.000000 -1.862300 3.913100 -16.568900 18.359900 0.000000 0.000000 -13.125600 -3.338000 5.851100 -2.123600 0.000000 0.000000 -0.579100 -6.841400 21.034500 21.800400 0.000000 0.000000 -0.460500 8.177700 10.848300 -26.162100 0.000000 0.000000 
0.397594 -1.014722 0.840087 -6.104500 0.782600 -99.716100 0.374300 5.819400 0.888200 0.531100 0.918700 0.567600 -1.829900 7.316000 5.913600 -0.449300 1.752300 -0.494700 -1.583000 -0.654400 2.640500 -4.590700 -0.371600 5.065800 -20.517700 24.826300 32.135800 -19.688400 -7.711200 16.374200 -0.000100 0.000100 102.596900 -32.751600 -13.467000 1.992000 0.000000 0.000000 0.000000 0.000000 0.000000 0.000000 0.309100 -8.466400 -6.435900 -34.940600 26.071200 -1.841300 -0.000100 0.000000 -132.882900 -53.476400 -14.079800 6.304300 0.000000 0.000000 0.000000 0.000000 0.000000 0.000000 -1.397400 4.589500 -16.341500 18.551100 0.000000 0.000000 -12.764100 -3.836100 5.944500 -2.449400 0.000000 0.000000 -0.131100 -7.354400 21.921400 20.748400 0.000000 0.000000 -0.599200 8.580000 12.288800 -26.320300 0.000000 0.000000 
0.393068 -1.022795 0.841162 -6.181000 0.979500 -99.698000 0.241100 5.328000 0.950300 0.455800 0.628500 0.547000 -1.855300 6.817800 6.050700 -0.437500 1.637700 -0.248200 -1.545400 -0.102900 2.600800 -4.018400 0.742700 5.297200 -20.105200 25.378200 31.638800 -19.458200 -6.637200 16.942900 -0.000100 0.000100 102.502600 -32.971300 -13.584300 1.945700 0.000000 0.000000 0.000000 0.000000 0.000000 0.000000 0.350200 -8.042100 -6.758800 -34.447900 26.144500 -1.768000 -0.000100 0.000000 -132.992500 -53.265800 -14.070400 6.298600 0.000000 0.000000 0.000000 0.000000 0.000000 0.000000 -1.098000 5.301900 -16.343100 18.673200 0.000000 0.000000 -12.473900 -4.154900 5.487400 -2.750100 0.000000 0.000000 -0.164200 -7.845200 21.975700 19.467100 0.000000 0.000000 -0.172700 8.693200 13.174700 -27.116800 0.000000 0.000000 
0.388501 -1.032617 0.842134 -6.457800 1.017300 -99.021800 0.102800 4.850000 0.992400 0.377600 0.362900 0.517000 -1.927900 6.253500 6.023100 -0.414100 1.514200 -0.072600 -1.545300 0.634000 2.631500 -3.475100 2.061200 5.264600 -19.503900 26.129600 30.906600 -19.261200 -5.402400 17.359700 -0.000100 0.000100 102.538900 -33.247100 -13.723800 1.957200 0.000000 0.000000 0.000000 0.000000 0.000000 0.000000 0.437900 -7.414700 -7.536000 -33.992900 26.577900 -1.565300 -0.000100 0.000000 -133.160300 -53.115600 -14.043300 6.196300 0.000000 0.000000 0.000000 0.000000 0.000000 0.000000 -0.863600 6.240400 -16.695200 18.750300 0.000000 0.000000 -12.320900 -4.362500 4.635000 -3.018900 0.000000 0.000000 -0.524000 -8.064000 21.082800 17.464400 0.000000 0.000000 2.704700 8.963500 13.398100 -27.034500 0.000000 0.000000 
0.383741 -1.043750 0.842902 -6.818700 1.040600 -98.004400 -0.005000 4.242900 1.031500 0.325000 0.083100 0.482500 -2.049000 5.804200 6.066000 -0.387500 1.440300 -0.028500 -1.426700 1.420700 2.877000 -2.999300 3.454900 4.841400 -18.820100 27.007000 29.978700 -19.062900 -4.119600 17.665400 -0.000100 0.000100 102.607100 -33.534500 -13.848200 2.047200 0.000000 0.000000 0.000000 0.000000 0.000000 0.000000 0.574300 -6.766400 -8.621600 -33.554200 27.283500 -1.328500 -0.000100 0.000000 -133.321400 -53.084700 -14.005500 6.020200 0.000000 0.000000 0.000000 0.000000 0.000000 0.000000 -0.496100 7.272200 -17.034500 18.694000 0.000000 0.000000 -12.304600 -4.597100 3.362500 -3.146600 0.000000 0.000000 -0.945100 -8.074000 19.549900 14.996700 0.000000 0.000000 8.232900 10.128100 12.646600 -22.336500 0.000000 0.000000 
0.378823 -1.055860 0.843227 -6.996500 1.139200 -96.886700 -0.047400 3.271900 1.062500 0.303300 -0.298300 0.434200 -2.147000 5.458300 6.094900 -0.378400 1.485500 -0.086700 -1.164000 2.574400 3.184100 -2.554100 4.594000 4.361200 -18.302800 28.120500 29.215100 -18.898600 -2.968900 17.851000 -0.000100 0.000100 102.541900 -33.783100 -14.038400 2.150300 0.000000 0.000000 0.000000 0.000000 0.000000 0.000000 0.714400 -6.023800 -9.673400 -33.128700 28.036300 -1.088800 -0.000100 0.000000 -133.388100 -53.074300 -13.933400 5.876200 0.000000 0.000000 0.000000 0.000000 0.000000 0.000000 0.096200 8.105200 -17.000100 18.492500 0.000000 0.000000 -12.379300 -4.933200 1.625100 -3.083700 0.000000 0.000000 -1.486700 -8.097200 17.167400 13.760600 0.000000 0.000000 13.192600 12.252600 11.337000 -14.003000 0.000000 0.000000 
0.374018 -1.068725 0.843379 -7.177800 1.341700 -95.803800 -0.027600 2.215000 1.104100 0.296600 -0.791700 0.365800 -2.192200 5.173000 5.997000 -0.379000 1.631700 -0.213000 -0.867800 4.178500 3.476900 -2.153100 5.433400 3.983700 -18.053300 29.368300 28.809100 -18.802700 -1.922400 17.949500 -0.000100 0.000100 102.298000 -33.858500 -14.344200 2.202600 0.000000 0.000000 0.000000 0.000000 0.000000 0.000000 0.801500 -5.100200 -10.489300 -32.726200 28.704500 -0.859800 -0.000100 0.000000 -133.358700 -52.971300 -13.798200 5.893000 0.000000 0.000000 0.000000 0.000000 0.000000 0.000000 0.776600 8.952200 -16.670300 18.338600 0.000000 0.000000 -12.506300 -5.316300 -0.393100 -2.923700 0.000000 0.000000 -2.127800 -7.839000 14.628700 14.656400 0.000000 0.000000 14.757700 14.323500 10.008100 -8.532700 0.000000 0.000000 
